<svg width="29" height="29" viewBox="0 0 29 29" fill="none" xmlns="http://www.w3.org/2000/svg">
<path d="M14.5002 -5.9547e-07C22.4953 -5.9547e-07 28.9998 6.50476 28.9998 14.5001C28.9998 22.4952 22.4953 29 14.5002 29C6.50499 29 0.000366211 22.4952 0.000366211 14.5001C0.000366211 6.50476 6.50499 -5.9547e-07 14.5002 -5.9547e-07ZM14.5002 27.0151C21.4009 27.0151 27.0149 21.4009 27.015 14.5001C27.015 7.59925 21.401 1.98506 14.5002 1.98493C7.59948 1.98506 1.98543 7.59925 1.98543 14.5002C1.98543 21.4008 7.59948 27.0151 14.5002 27.0151Z" fill="black"/>
<path d="M12.5529 8.29C12.9404 7.90254 13.5689 7.90267 13.9563 8.29C14.3441 8.67772 14.3441 9.30602 13.9562 9.69374L10.1425 13.5073L21.1863 13.5084C21.7344 13.5085 22.1786 13.9527 22.1786 14.5011C22.1785 15.0492 21.7342 15.4933 21.1861 15.4933L10.142 15.4923L13.9566 19.3066C14.3442 19.6942 14.3442 20.3228 13.9566 20.7103C13.7627 20.904 13.5088 21.001 13.2547 21.001C13.0008 21.001 12.7468 20.904 12.553 20.7104L7.04427 15.2018C6.85808 15.0157 6.75354 14.7634 6.75354 14.5001C6.75367 14.2367 6.85821 13.9845 7.0444 13.7981L12.5529 8.29Z" fill="black"/>
</svg>
