<svg width="22" height="22" viewBox="0 0 22 22" fill="none" xmlns="http://www.w3.org/2000/svg">
<g clip-path="url(#clip0_76_40)">
<path d="M17.9063 4.77122H8.42711C7.93308 4.71382 7.43247 4.7689 6.96275 4.93235C6.49303 5.09579 6.06636 5.36337 5.71468 5.71505C5.363 6.06673 5.09543 6.49339 4.93198 6.96312C4.76854 7.43284 4.71345 7.93345 4.77086 8.42747V17.9066C4.71345 18.4007 4.76854 18.9013 4.93198 19.371C5.09543 19.8407 5.363 20.2674 5.71468 20.6191C6.06636 20.9707 6.49303 21.2383 6.96275 21.4018C7.43247 21.5652 7.93308 21.6203 8.42711 21.5629H17.9063C18.4003 21.6203 18.9009 21.5652 19.3706 21.4018C19.8404 21.2383 20.267 20.9707 20.6187 20.6191C20.9704 20.2674 21.238 19.8407 21.4014 19.371C21.5648 18.9013 21.6199 18.4007 21.5625 17.9066V8.42747C21.6199 7.93345 21.5648 7.43284 21.4014 6.96312C21.238 6.49339 20.9704 6.06673 20.6187 5.71505C20.267 5.36337 19.8404 5.09579 19.3706 4.93235C18.9009 4.7689 18.4003 4.71382 17.9063 4.77122ZM19.9375 17.9066C19.9375 19.3496 19.3493 19.9379 17.9063 19.9379H8.42711C6.98411 19.9379 6.39586 19.3496 6.39586 17.9066V8.42747C6.39586 6.98447 6.98411 6.39622 8.42711 6.39622H17.9063C19.3493 6.39622 19.9375 6.98447 19.9375 8.42747V17.9066ZM2.06252 4.08872V13.5787C2.06252 14.8787 2.58577 15.1961 2.75802 15.3012C2.93359 15.4177 3.05713 15.5977 3.10265 15.8034C3.14816 16.0091 3.11211 16.2245 3.00206 16.4041C2.89202 16.5838 2.71658 16.7138 2.51265 16.7667C2.30872 16.8196 2.09221 16.7914 1.90869 16.6879C1.40647 16.3499 1.00472 15.8827 0.745803 15.3355C0.486885 14.7883 0.380384 14.1814 0.437524 13.5787V4.08872C0.38615 3.59667 0.445273 3.09934 0.61058 2.63304C0.775886 2.16675 1.04321 1.74323 1.39304 1.3934C1.74286 1.04357 2.16638 0.776253 2.63268 0.610946C3.09898 0.44564 3.5963 0.386517 4.08836 0.437891H13.5784C14.1811 0.380043 14.7883 0.486228 15.3356 0.745207C15.8829 1.00419 16.35 1.40632 16.6875 1.90906C16.7433 2.00004 16.7806 2.10111 16.7973 2.2065C16.814 2.3119 16.8098 2.41955 16.7849 2.52332C16.76 2.62708 16.7149 2.72493 16.6522 2.81127C16.5895 2.89761 16.5104 2.97075 16.4194 3.02652C16.3284 3.08228 16.2273 3.11959 16.122 3.13629C16.0166 3.153 15.9089 3.14878 15.8051 3.12389C15.7014 3.09899 15.6035 3.0539 15.5172 2.99118C15.4309 2.92847 15.3577 2.84937 15.3019 2.75839C15.1936 2.58614 14.8762 2.06289 13.5784 2.06289H4.08836C2.64969 2.06289 2.06252 2.65006 2.06252 4.08872Z" fill="black"/>
</g>
<defs>
<clipPath id="clip0_76_40">
<rect width="22" height="22" fill="white"/>
</clipPath>
</defs>
</svg>
