<svg width="20" height="20" viewBox="0 0 20 20" fill="none" xmlns="http://www.w3.org/2000/svg">
<path fill-rule="evenodd" clip-rule="evenodd" d="M6.67191 0.555273C6.67194 0.408146 6.73038 0.267048 6.83439 0.162988C6.9384 0.0589269 7.07947 0.000416035 7.2266 0.0003125L12.7731 0C12.9203 0.000341171 13.0613 0.0590141 13.1653 0.163159C13.2693 0.267303 13.3277 0.408423 13.3278 0.555586V1.92734H6.67191V0.555273ZM15.7915 19.2054C15.7773 19.4217 15.681 19.6244 15.5223 19.772C15.3636 19.9197 15.1545 20.001 14.9377 19.9995H4.99824C4.78154 19.9989 4.57309 19.9164 4.41474 19.7685C4.25639 19.6205 4.15987 19.4182 4.14457 19.202L3.29402 6.75992H16.6993L15.7917 19.2052L15.7915 19.2054ZM18.0012 5.63305H1.9989V4.34398C1.99914 4.0021 2.13504 3.67428 2.37676 3.43251C2.61849 3.19073 2.94627 3.05476 3.28816 3.05445L16.7118 3.05402C17.0536 3.05455 17.3813 3.19064 17.623 3.43244C17.8646 3.67424 18.0005 4.00201 18.0008 4.34387V5.63293L18.0012 5.63305ZM7.42343 17.0335C7.42343 17.1075 7.438 17.1807 7.46632 17.2491C7.49463 17.3174 7.53612 17.3795 7.58844 17.4318C7.64075 17.4841 7.70285 17.5256 7.7712 17.554C7.83955 17.5823 7.91281 17.5968 7.98679 17.5968C8.06077 17.5968 8.13403 17.5823 8.20238 17.554C8.27073 17.5256 8.33283 17.4841 8.38515 17.4318C8.43746 17.3795 8.47896 17.3174 8.50727 17.2491C8.53558 17.1807 8.55015 17.1075 8.55015 17.0335V9.1332C8.54897 8.98463 8.48913 8.84254 8.38367 8.73788C8.2782 8.63322 8.13566 8.57447 7.98708 8.57441C7.8385 8.57436 7.69592 8.63302 7.59039 8.7376C7.48485 8.84219 7.42492 8.98424 7.42363 9.13281V17.0335H7.42343ZM11.443 17.0335C11.443 17.1829 11.5023 17.3262 11.608 17.4319C11.7137 17.5376 11.857 17.5969 12.0064 17.5969C12.1558 17.5969 12.2991 17.5376 12.4048 17.4319C12.5105 17.3262 12.5698 17.1829 12.5698 17.0335V9.1332C12.5687 8.98461 12.5088 8.8425 12.4033 8.73782C12.2979 8.63315 12.1553 8.57439 12.0067 8.57434C11.8581 8.57428 11.7155 8.63295 11.6099 8.73755C11.5044 8.84215 11.4444 8.98422 11.4432 9.13281L11.443 17.0335Z" fill="#FC0005"/>
</svg>
