<svg width="20" height="20" viewBox="0 0 20 20" fill="none" xmlns="http://www.w3.org/2000/svg">
<g clip-path="url(#clip0_76_31)">
<path d="M16.4283 10C16.0338 10 15.7141 10.3198 15.7141 10.7143V17.8571C15.7141 18.2515 15.3943 18.5713 14.9998 18.5713H2.14283C1.74833 18.5713 1.42854 18.2515 1.42854 17.8571V3.57154C1.42854 3.17704 1.74833 2.85725 2.14283 2.85725H10.7141C11.1086 2.85725 11.4284 2.53746 11.4284 2.14296C11.4284 1.74846 11.1086 1.42871 10.7141 1.42871H2.14283C0.959376 1.42871 0 2.38809 0 3.57154V17.8571C0 19.0405 0.959376 19.9999 2.14283 19.9999H14.9998C16.1833 19.9999 17.1426 19.0405 17.1426 17.8571V10.7143C17.1426 10.3198 16.8228 10 16.4283 10Z" fill="black"/>
<path d="M19.1993 0.800977C18.6865 0.288038 17.9908 -7.24037e-05 17.2655 1.13006e-05C16.5397 -0.00208131 15.8434 0.286531 15.332 0.801438L5.92349 10.2091C5.84544 10.2878 5.78655 10.3834 5.75135 10.4884L4.32281 14.7741C4.19814 15.1483 4.40049 15.5528 4.77478 15.6774C4.84739 15.7016 4.92343 15.714 4.99994 15.7141C5.07661 15.7139 5.15283 15.7016 5.22565 15.6777L9.51131 14.2491C9.61656 14.214 9.7122 14.1548 9.79059 14.0763L19.199 4.66782C20.2669 3.60009 20.267 1.86883 19.1993 0.800977ZM18.1891 3.65851L8.90345 12.9441L6.12919 13.8705L7.05275 11.0998L16.3419 1.81426C16.8526 1.30458 17.6798 1.30542 18.1895 1.8161C18.4329 2.06006 18.5701 2.39031 18.5712 2.73496C18.572 3.08146 18.4345 3.41393 18.1891 3.65851Z" fill="black"/>
</g>
<defs>
<clipPath id="clip0_76_31">
<rect width="20" height="20" fill="white"/>
</clipPath>
</defs>
</svg>
