<svg width="35" height="35" viewBox="0 0 35 35" fill="none" xmlns="http://www.w3.org/2000/svg">
<path d="M22.225 32.4766H22.0355C15.5605 32.4766 12.4396 29.9245 11.9 24.2079C11.8417 23.61 12.2792 23.0704 12.8917 23.012C13.4896 22.9537 14.0292 23.4058 14.0875 24.0037C14.5105 28.5829 16.6688 30.2891 22.05 30.2891H22.2396C28.175 30.2891 30.275 28.1891 30.275 22.2537V12.7454C30.275 6.80996 28.175 4.70996 22.2396 4.70996H22.05C16.6396 4.70996 14.4813 6.44538 14.0875 11.112C14.0146 11.71 13.5188 12.162 12.8917 12.1037C12.2792 12.06 11.8417 11.5204 11.8855 10.9225C12.3813 5.11829 15.5167 2.52246 22.0355 2.52246H22.225C29.3855 2.52246 32.448 5.58496 32.448 12.7454V22.2537C32.448 29.4141 29.3855 32.4766 22.225 32.4766Z" fill="black"/>
<path d="M21.7001 18.5938H2.91675C2.31883 18.5938 1.823 18.0979 1.823 17.5C1.823 16.9021 2.31883 16.4062 2.91675 16.4062H21.7001C22.298 16.4062 22.7938 16.9021 22.7938 17.5C22.7938 18.0979 22.3126 18.5938 21.7001 18.5938Z" fill="black"/>
<path d="M18.4479 23.4791C18.1708 23.4791 17.8937 23.377 17.675 23.1583C17.2521 22.7354 17.2521 22.0354 17.675 21.6124L21.7875 17.4999L17.675 13.3874C17.2521 12.9645 17.2521 12.2645 17.675 11.8416C18.0979 11.4187 18.7979 11.4187 19.2208 11.8416L24.1062 16.727C24.5291 17.1499 24.5291 17.8499 24.1062 18.2729L19.2208 23.1583C19.0021 23.377 18.725 23.4791 18.4479 23.4791Z" fill="black"/>
</svg>
