<svg width="24" height="24" viewBox="0 0 24 24" fill="none" xmlns="http://www.w3.org/2000/svg">
<path d="M12.0193 20.5299C9.68926 20.5299 7.35926 20.1599 5.14926 19.4199C4.30926 19.1299 3.66926 18.5399 3.38926 17.7699C3.09926 16.9999 3.19926 16.1499 3.65926 15.3899L4.80926 13.4799C5.04926 13.0799 5.26926 12.2799 5.26926 11.8099V8.91992C5.26926 5.19992 8.29926 2.16992 12.0193 2.16992C15.7393 2.16992 18.7693 5.19992 18.7693 8.91992V11.8099C18.7693 12.2699 18.9893 13.0799 19.2293 13.4899L20.3693 15.3899C20.7993 16.1099 20.8793 16.9799 20.5893 17.7699C20.2993 18.5599 19.6693 19.1599 18.8793 19.4199C16.6793 20.1599 14.3493 20.5299 12.0193 20.5299ZM12.0193 3.66992C9.12926 3.66992 6.76926 6.01992 6.76926 8.91992V11.8099C6.76926 12.5399 6.46926 13.6199 6.09926 14.2499L4.94926 16.1599C4.72926 16.5299 4.66926 16.9199 4.79926 17.2499C4.91926 17.5899 5.21926 17.8499 5.62926 17.9899C9.80926 19.3899 14.2393 19.3899 18.4193 17.9899C18.7793 17.8699 19.0593 17.5999 19.1893 17.2399C19.3193 16.8799 19.2893 16.4899 19.0893 16.1599L17.9393 14.2499C17.5593 13.5999 17.2693 12.5299 17.2693 11.7999V8.91992C17.2693 6.01992 14.9193 3.66992 12.0193 3.66992Z" fill="#262626"/>
<path d="M13.8802 3.93969C13.8102 3.93969 13.7402 3.92969 13.6702 3.90969C13.3802 3.82969 13.1002 3.76969 12.8302 3.72969C11.9802 3.61969 11.1602 3.67969 10.3902 3.90969C10.1102 3.99969 9.81024 3.90969 9.62024 3.69969C9.43024 3.48969 9.37024 3.18969 9.48024 2.91969C9.89024 1.86969 10.8902 1.17969 12.0302 1.17969C13.1702 1.17969 14.1702 1.85969 14.5802 2.91969C14.6802 3.18969 14.6302 3.48969 14.4402 3.69969C14.2902 3.85969 14.0802 3.93969 13.8802 3.93969Z" fill="#262626"/>
<path d="M12.0199 22.8096C11.0299 22.8096 10.0699 22.4096 9.3699 21.7096C8.6699 21.0096 8.2699 20.0496 8.2699 19.0596H9.7699C9.7699 19.6496 10.0099 20.2296 10.4299 20.6496C10.8499 21.0696 11.4299 21.3096 12.0199 21.3096C13.2599 21.3096 14.2699 20.2996 14.2699 19.0596H15.7699C15.7699 21.1296 14.0899 22.8096 12.0199 22.8096Z" fill="#262626"/>
</svg>
