<svg width="25" height="24" viewBox="0 0 25 24" fill="none" xmlns="http://www.w3.org/2000/svg">
<path d="M12.62 12.7805C12.55 12.7705 12.46 12.7705 12.38 12.7805C10.62 12.7205 9.21997 11.2805 9.21997 9.51047C9.21997 7.70047 10.68 6.23047 12.5 6.23047C14.31 6.23047 15.78 7.70047 15.78 9.51047C15.77 11.2805 14.38 12.7205 12.62 12.7805Z" stroke="#C1C1C1" stroke-width="1.5" stroke-linecap="round" stroke-linejoin="round"/>
<path d="M19.24 19.3796C17.46 21.0096 15.1 21.9996 12.5 21.9996C9.90001 21.9996 7.54001 21.0096 5.76001 19.3796C5.86001 18.4396 6.46001 17.5196 7.53001 16.7996C10.27 14.9796 14.75 14.9796 17.47 16.7996C18.54 17.5196 19.14 18.4396 19.24 19.3796Z" stroke="#C1C1C1" stroke-width="1.5" stroke-linecap="round" stroke-linejoin="round"/>
<path d="M12.5 22C18.0228 22 22.5 17.5228 22.5 12C22.5 6.47715 18.0228 2 12.5 2C6.97715 2 2.5 6.47715 2.5 12C2.5 17.5228 6.97715 22 12.5 22Z" stroke="#C1C1C1" stroke-width="1.5" stroke-linecap="round" stroke-linejoin="round"/>
</svg>
